<svg id="Layer_1" data-name="Layer 1" xmlns="http://www.w3.org/2000/svg" viewBox="0 0 1900 1050.24"><defs><style>.cls-1{fill:#0a0167;}.cls-2{fill:#ff4500;}</style></defs><title>Vertical logo with slogan</title><path class="cls-1" d="M50,1383.2v-217h66.57q31.5,0,49.93,15t18.43,40.86q0,14.57-6.54,25.26A45.31,45.31,0,0,1,160.71,1264Q149.57,1270,135,1270v-1.19q15.75-.29,28.09,5.8a47.08,47.08,0,0,1,19.61,18q7.29,11.88,7.28,28.83,0,18.72-8.61,32.69a57,57,0,0,1-24.23,21.55q-15.6,7.58-37.3,7.58Zm36.26-127.51H116q14.86,0,23.33-7.87t8.47-21.55q0-13.66-8.47-21.4T116,1197.14H86.26Zm0,96.6h31.21q16.34,0,25.7-8.77t9.37-23.93q0-15.15-9.37-24.52t-25.7-9.36H86.26Z" transform="translate(-50 -474.88)"/><path class="cls-1" d="M210.19,1383.2v-33.89h57.06v-96H217.62v-33.59h85.3v129.58h50.52v33.89Zm71.92-190.81q-11.3,0-17.83-5.8t-6.54-15.6q0-9.81,6.54-15.6t17.83-5.8q11.29,0,17.84,5.8t6.53,15.6q0,9.81-6.53,15.6T282.11,1192.39Z" transform="translate(-50 -474.88)"/><path class="cls-1" d="M371,1383.2V1219.73h36.25v31.21h10.11l-10.11,8.62q0-20.2,11.75-31.5t32.24-11.3q24.07,0,38.49,16t14.41,43.1V1383.2H467V1279.77q0-14.87-7.72-22.89t-21.7-8q-13.68,0-21.55,8.32T408.13,1281V1383.2Z" transform="translate(-50 -474.88)"/><path class="cls-1" d="M579.61,1386.17q-25.26,0-39.82-13.38t-14.57-36q0-24.07,16-37.15t45.47-13.08h40.72v-14q0-11.9-7.73-18.58t-21.1-6.69q-12.18,0-20.21,5.35a20.91,20.91,0,0,0-9.51,14.56H532.65q2.69-23.17,20.81-36.85t46.36-13.67q30,0,47.4,15t17.39,40.57V1383.2h-36v-28.54H622.7l5.95-8q0,18.13-13.38,28.83T579.61,1386.17Zm12.18-27.94q15.76,0,25.71-8a25.49,25.49,0,0,0,10-20.81v-19.91H587.34q-11.31,0-18.13,6.54t-6.84,17.24q0,11.58,7.88,18.27T591.79,1358.23Z" transform="translate(-50 -474.88)"/><path class="cls-1" d="M697,1383.2V1219.73h35.08v31.21h9.21l-11,19q0-26.45,11.89-39.82t35.07-13.38q26.44,0,41.61,16.35T834,1278.28v11.89H795.08V1281q0-15.75-8.17-24.37T764.47,1248q-14.57,0-22.44,8.62T734.16,1281V1383.2Z" transform="translate(-50 -474.88)"/><path class="cls-1" d="M878.89,1436.69l22.89-62.41-60.93-154.55h40.71l30.32,83.52q2.37,6.84,4.76,16.49t3.56,15.9q1.49-6.24,3.87-15.9t4.75-16.49l28.53-83.52h39.23l-78.76,217Z" transform="translate(-50 -474.88)"/><path class="cls-1" d="M1080.39,1386.17q-20.81,0-36.4-7.88a57,57,0,0,1-24.08-22.29q-8.48-14.41-8.47-34v-94.51q0-19.9,8.47-34.18a57.28,57.28,0,0,1,24.08-22.14q15.6-7.87,36.4-7.88,21.1,0,36.41,7.88a58.76,58.76,0,0,1,23.93,22.14q8.61,14.27,8.61,34.18H1111.9q0-15.45-8.18-23.48t-23.33-8q-15.15,0-23.48,8t-8.32,23.18V1322q0,15.16,8.32,23.33t23.48,8.17q15.16,0,23.33-8.17t8.18-23.33h37.44q0,19.32-8.61,33.88a58.15,58.15,0,0,1-23.93,22.44Q1101.48,1386.17,1080.39,1386.17Z" transform="translate(-50 -474.88)"/><path class="cls-1" d="M1221.56,1386.17q-25.26,0-39.82-13.38t-14.56-36q0-24.07,16-37.15t45.48-13.08h40.71v-14q0-11.9-7.72-18.58t-21.1-6.69q-12.19,0-20.22,5.35a20.89,20.89,0,0,0-9.5,14.56H1174.6q2.69-23.17,20.81-36.85t46.36-13.67q30,0,47.41,15t17.38,40.57V1383.2h-36v-28.54h-5.94l5.94-8q0,18.13-13.37,28.83T1221.56,1386.17Zm12.19-27.94q15.75,0,25.71-8a25.51,25.51,0,0,0,10-20.81v-19.91h-40.12q-11.3,0-18.13,6.54t-6.83,17.24q0,11.58,7.87,18.27T1233.75,1358.23Z" transform="translate(-50 -474.88)"/><path class="cls-1" d="M1393.94,1385.87q-18.72,0-32.69-5.94t-21.85-16.5a43.48,43.48,0,0,1-8.47-24.81h37.15q.6,7.73,7.58,12.48t18.28,4.75H1407q13.67,0,20.5-5.35t6.84-14.56q0-8.61-6.09-13.52t-18.88-6.39l-20.21-3q-27.93-3.87-41-14.86t-13.08-33q0-22.89,15.46-35.52t45.47-12.63h11.3q27.33,0,43.68,12.18t17.54,32.7h-37.15q-.9-6.54-7.28-10.7t-16.79-4.16H1396q-12.78,0-18.57,4.6t-5.8,13.53q0,8.31,5,12.33t16.35,5.79l21.1,3q29.11,4.15,42.95,15.6t13.82,33.73q0,23.79-16.2,37t-47.7,13.22Z" transform="translate(-50 -474.88)"/><path class="cls-1" d="M1578.5,1383.2q-23.48,0-36.7-13.08t-13.23-36v-80.84h-44.28v-33.59h44.28v-46.06H1566v46.06h62.71v33.59H1566v80.84q0,15.45,15.15,15.45h44.58v33.59Z" transform="translate(-50 -474.88)"/><path class="cls-1" d="M1746.12,1383.2q-16,0-28.08-6.54a47.26,47.26,0,0,1-18.88-18.58q-6.84-12-6.83-27.79V1199.82H1640v-33.58h89.46v164q0,8.93,5.2,14.12t14.12,5.2h49.33v33.59Z" transform="translate(-50 -474.88)"/><path class="cls-1" d="M1881.94,1386.17q-20.81,0-36.26-8a58.07,58.07,0,0,1-23.92-22.44q-8.48-14.4-8.47-33.73v-41q0-19.32,8.47-33.74a58.18,58.18,0,0,1,23.92-22.43q15.45-8,36.26-8,20.5,0,35.81,8a58.36,58.36,0,0,1,23.78,22.43q8.48,14.43,8.47,33.74v29.42H1849.25V1322q0,17.25,8.32,26t24.67,8.76q12.48,0,20.21-4.31a19.34,19.34,0,0,0,9.81-12.63h36.55q-4.17,21.12-22.44,33.74T1881.94,1386.17Zm32.1-96.59v-8.92q0-16.94-8-26t-24.08-9.07q-16.05,0-24.37,9.21t-8.32,26.16v6.24l67.46-.6Z" transform="translate(-50 -474.88)"/><path class="cls-2" d="M70.72,1525.12a24,24,0,0,1-10.94-2.37,17.05,17.05,0,0,1-7.23-6.7A19.79,19.79,0,0,1,50,1505.82v-28.4a19.73,19.73,0,0,1,2.55-10.27,17.22,17.22,0,0,1,7.23-6.66,24.08,24.08,0,0,1,10.94-2.36,23.78,23.78,0,0,1,11,2.36,17.72,17.72,0,0,1,7.19,6.66,19.56,19.56,0,0,1,2.59,10.27H80.19q0-4.65-2.45-7.06c-1.64-1.6-4-2.41-7-2.41a9.77,9.77,0,0,0-7,2.41q-2.51,2.42-2.5,7v28.49q0,4.56,2.5,7c1.66,1.64,4,2.45,7,2.45s5.38-.81,7-2.45,2.45-4,2.45-7H91.45A19.69,19.69,0,0,1,88.86,1516a17.44,17.44,0,0,1-7.19,6.74A23.65,23.65,0,0,1,70.72,1525.12Z" transform="translate(-50 -474.88)"/><path class="cls-2" d="M127.09,1524.23,143.52,1459H157.9l16.53,65.21H163l-3.57-15.82H142.09l-3.57,15.82Zm17.06-24.93h13.22l-3.93-17.5q-1-4.38-1.7-7.91c-.48-2.35-.8-4.06-1-5.13-.18,1.07-.5,2.78-.94,5.13s-1,5-1.74,7.82Z" transform="translate(-50 -474.88)"/><path class="cls-2" d="M231.33,1525.12a28,28,0,0,1-11.61-2.23,17,17,0,0,1-7.55-6.39,18.41,18.41,0,0,1-2.73-9.78h11.17a7.55,7.55,0,0,0,2.9,6.3,12.55,12.55,0,0,0,7.91,2.27c3.21,0,5.73-.74,7.54-2.23a7.52,7.52,0,0,0,2.73-6.16,9.05,9.05,0,0,0-1.92-5.76,9.63,9.63,0,0,0-5.5-3.35l-7.5-2.06q-7.68-2-11.83-7.06a18.85,18.85,0,0,1-4.16-12.32,18.27,18.27,0,0,1,2.5-9.65,16.57,16.57,0,0,1,7.11-6.34,24.55,24.55,0,0,1,10.85-2.23q9.47,0,15,4.86t5.62,13.09H240.71a7.62,7.62,0,0,0-2.5-6q-2.51-2.19-7.06-2.19a10.16,10.16,0,0,0-6.79,2.06,7.19,7.19,0,0,0-2.41,5.8,9.1,9.1,0,0,0,1.83,5.76,9.8,9.8,0,0,0,5.31,3.35l7.78,2.15q7.77,2,11.88,7a19.13,19.13,0,0,1,4.1,12.46,17.9,17.9,0,0,1-2.68,9.78,17.69,17.69,0,0,1-7.5,6.57A26,26,0,0,1,231.33,1525.12Z" transform="translate(-50 -474.88)"/><path class="cls-2" d="M305.91,1524.23v-54.85H288.85V1459h45.38v10.36H317.17v54.85Z" transform="translate(-50 -474.88)"/><path class="cls-2" d="M374.33,1524.23V1459H385.5v54.84h27.69v10.37Z" transform="translate(-50 -474.88)"/><path class="cls-2" d="M453.38,1524.23V1459h39.13v9.74H464.37v17h25v9.64h-25v19.12h28.14v9.74Z" transform="translate(-50 -474.88)"/><path class="cls-2" d="M608.09,1525.12a23.4,23.4,0,0,1-10.85-2.37,16.62,16.62,0,0,1-7.06-6.7,20.36,20.36,0,0,1-2.45-10.23v-28.4a20.38,20.38,0,0,1,2.45-10.23,16.74,16.74,0,0,1,7.06-6.7,26.24,26.24,0,0,1,21.75,0,16.79,16.79,0,0,1,7,6.7,20.2,20.2,0,0,1,2.46,10.14v28.49a20.36,20.36,0,0,1-2.46,10.23,16.67,16.67,0,0,1-7,6.7A23.35,23.35,0,0,1,608.09,1525.12Zm0-9.83c3,0,5.33-.81,6.88-2.45s2.32-4,2.32-7v-28.4q0-4.65-2.32-7.06c-1.55-1.6-3.84-2.41-6.88-2.41s-5.33.81-6.88,2.41-2.32,4-2.32,7.06v28.4q0,4.56,2.37,7C602.84,1514.48,605.11,1515.29,608.09,1515.29Z" transform="translate(-50 -474.88)"/><path class="cls-2" d="M668.83,1524.23V1459h40.56v10.36H679.82v17.42h27.24v10.36H680v27.07Z" transform="translate(-50 -474.88)"/><path class="cls-2" d="M806.12,1524.23V1459h20q9.47,0,15,4.51a15,15,0,0,1,5.54,12.28,14.25,14.25,0,0,1-2,7.59,13.61,13.61,0,0,1-5.31,5,16.21,16.21,0,0,1-7.73,1.78v-.35a18,18,0,0,1,8.44,1.74,14.22,14.22,0,0,1,5.9,5.4,16.36,16.36,0,0,1,2.18,8.67,18.29,18.29,0,0,1-2.59,9.82,17.07,17.07,0,0,1-7.28,6.48,25.39,25.39,0,0,1-11.21,2.28ZM817,1485.9H826a9.86,9.86,0,0,0,7-2.36,8.41,8.41,0,0,0,2.55-6.48,8.26,8.26,0,0,0-2.55-6.43,10,10,0,0,0-7-2.32H817Zm0,29h9.38a10.87,10.87,0,0,0,7.73-2.64,9.38,9.38,0,0,0,2.81-7.19,10,10,0,0,0-2.81-7.37,10.49,10.49,0,0,0-7.73-2.81H817Z" transform="translate(-50 -474.88)"/><path class="cls-2" d="M887.68,1524.23v-9.83h13.13v-45.55H887.68V1459h37.51v9.83H912.06v45.55h13.13v9.83Z" transform="translate(-50 -474.88)"/><path class="cls-2" d="M966.46,1524.23V1459h13.67l18.13,52.7q-.27-2.85-.58-6.74t-.49-8q-.18-4.07-.18-7.11V1459h10.18v65.21H993.52l-17.95-52.71q.18,2.6.45,6.26c.18,2.44.32,4.94.45,7.5s.17,4.91.17,7.06v31.89Z" transform="translate(-50 -474.88)"/><path class="cls-2" d="M1043.54,1524.23,1060,1459h14.38l16.53,65.21h-11.44l-3.57-15.82h-17.33l-3.57,15.82Zm17.07-24.93h13.21l-3.92-17.5q-1-4.38-1.7-7.91c-.48-2.35-.8-4.06-1-5.13q-.26,1.6-.93,5.13t-1.74,7.82Z" transform="translate(-50 -474.88)"/><path class="cls-2" d="M1127.6,1524.23V1459h20.63a24.77,24.77,0,0,1,11.3,2.41,18.26,18.26,0,0,1,7.46,6.74,19,19,0,0,1,2.68,10.23,20.09,20.09,0,0,1-3.26,11.35,17.7,17.7,0,0,1-8.8,7l13,27.52h-12.5l-11.35-25.91h-8v25.91Zm11.16-35.73h9.47a10.19,10.19,0,0,0,7.41-2.6,9.44,9.44,0,0,0,2.69-7.14,9.74,9.74,0,0,0-2.69-7.28,10.08,10.08,0,0,0-7.41-2.63h-9.47Z" transform="translate(-50 -474.88)"/><path class="cls-2" d="M1222.37,1524.23v-23.68L1203.26,1459H1215l10.18,22.6a53.33,53.33,0,0,1,2,5.27,41,41,0,0,1,1.07,4q.36-1.42,1.11-4a44.45,44.45,0,0,1,1.93-5.27l9.91-22.6h11.61l-19.11,41.53v23.68Z" transform="translate(-50 -474.88)"/><path class="cls-2" d="M1346.89,1524.23l-6.7-65.21h9.64l3.94,45.55c.11,1,.22,2.25.31,3.71s.18,2.93.27,4.42.13,2.8.13,3.93q.18-1.7.36-3.93c.12-1.49.25-3,.4-4.42s.28-2.69.4-3.71L1361,1459h9.38l5,45.55c.18,1,.34,2.25.49,3.71s.31,2.93.5,4.42.32,2.8.44,3.93q.09-1.7.18-3.93c.06-1.49.14-3,.22-4.42s.2-2.69.32-3.71l3.84-45.55h9.55l-7.05,65.21h-12.33l-4.82-45.74c-.12-1.13-.25-2.46-.41-4s-.28-3-.4-4.56-.2-2.81-.26-3.88c-.06,1.07-.17,2.36-.32,3.88s-.28,3-.4,4.56-.24,2.84-.36,4l-5.27,45.74Z" transform="translate(-50 -474.88)"/><path class="cls-2" d="M1422.28,1524.23l16.43-65.21h14.38l16.53,65.21h-11.43l-3.58-15.82h-17.33l-3.57,15.82Zm17.06-24.93h13.22l-3.93-17.5q-1-4.38-1.7-7.91c-.48-2.35-.8-4.06-1-5.13q-.27,1.6-.94,5.13t-1.74,7.82Z" transform="translate(-50 -474.88)"/><path class="cls-2" d="M1506.33,1524.23V1459H1527a24.77,24.77,0,0,1,11.3,2.41,18.26,18.26,0,0,1,7.46,6.74,19,19,0,0,1,2.68,10.23,20.09,20.09,0,0,1-3.26,11.35,17.66,17.66,0,0,1-8.8,7l13,27.52h-12.5l-11.34-25.91h-8v25.91Zm11.16-35.73H1527a10.23,10.23,0,0,0,7.42-2.6,9.47,9.47,0,0,0,2.68-7.14,9.77,9.77,0,0,0-2.68-7.28,10.12,10.12,0,0,0-7.42-2.63h-9.47Z" transform="translate(-50 -474.88)"/><path class="cls-2" d="M1586.72,1524.23V1459h20.64a24.73,24.73,0,0,1,11.29,2.41,18.29,18.29,0,0,1,7.47,6.74,19.12,19.12,0,0,1,2.67,10.23,20,20,0,0,1-3.26,11.35,17.68,17.68,0,0,1-8.79,7l13,27.52h-12.51l-11.34-25.91h-7.95v25.91Zm11.17-35.73h9.47a10.2,10.2,0,0,0,7.41-2.6,9.43,9.43,0,0,0,2.68-7.14,9.73,9.73,0,0,0-2.68-7.28,10.09,10.09,0,0,0-7.41-2.63h-9.47Z" transform="translate(-50 -474.88)"/><path class="cls-2" d="M1668.36,1524.23v-9.83h13.13v-45.55h-13.13V1459h37.52v9.83h-13.13v45.55h13.13v9.83Z" transform="translate(-50 -474.88)"/><path class="cls-2" d="M1767.51,1525.12a23.4,23.4,0,0,1-10.85-2.37,16.62,16.62,0,0,1-7.06-6.7,20.36,20.36,0,0,1-2.45-10.23v-28.4a20.38,20.38,0,0,1,2.45-10.23,16.74,16.74,0,0,1,7.06-6.7,26.24,26.24,0,0,1,21.75,0,16.79,16.79,0,0,1,7,6.7,20.2,20.2,0,0,1,2.46,10.14v28.49a20.36,20.36,0,0,1-2.46,10.23,16.67,16.67,0,0,1-7,6.7A23.35,23.35,0,0,1,1767.51,1525.12Zm0-9.83c3,0,5.33-.81,6.88-2.45s2.32-4,2.32-7v-28.4q0-4.65-2.32-7.06c-1.55-1.6-3.84-2.41-6.88-2.41s-5.33.81-6.88,2.41-2.32,4-2.32,7.06v28.4q0,4.56,2.37,7C1762.26,1514.48,1764.54,1515.29,1767.51,1515.29Z" transform="translate(-50 -474.88)"/><path class="cls-2" d="M1827.89,1524.23V1459h20.64a24.8,24.8,0,0,1,11.3,2.41,18.33,18.33,0,0,1,7.46,6.74,19.12,19.12,0,0,1,2.67,10.23,20,20,0,0,1-3.26,11.35,17.68,17.68,0,0,1-8.79,7l12.95,27.52h-12.51L1847,1498.32h-8v25.91Zm11.17-35.73h9.47a10.2,10.2,0,0,0,7.41-2.6,9.43,9.43,0,0,0,2.68-7.14,9.73,9.73,0,0,0-2.68-7.28,10.09,10.09,0,0,0-7.41-2.63h-9.47Z" transform="translate(-50 -474.88)"/><path class="cls-2" d="M1928.47,1525.12a28,28,0,0,1-11.61-2.23,17.06,17.06,0,0,1-7.55-6.39,18.41,18.41,0,0,1-2.72-9.78h11.16a7.56,7.56,0,0,0,2.91,6.3,12.52,12.52,0,0,0,7.9,2.27c3.22,0,5.73-.74,7.55-2.23a7.54,7.54,0,0,0,2.72-6.16,9.05,9.05,0,0,0-1.92-5.76,9.64,9.64,0,0,0-5.49-3.35l-7.5-2.06q-7.7-2-11.84-7.06a18.85,18.85,0,0,1-4.15-12.32,18.18,18.18,0,0,1,2.5-9.65,16.54,16.54,0,0,1,7.1-6.34,24.61,24.61,0,0,1,10.85-2.23q9.46,0,15,4.86t5.63,13.09h-11.17a7.59,7.59,0,0,0-2.5-6q-2.5-2.19-7.06-2.19a10.18,10.18,0,0,0-6.79,2.06,7.22,7.22,0,0,0-2.41,5.8,9.05,9.05,0,0,0,1.84,5.76,9.76,9.76,0,0,0,5.31,3.35L1934,1487q7.77,2,11.88,7a19.09,19.09,0,0,1,4.11,12.46,17.47,17.47,0,0,1-10.18,16.35A26,26,0,0,1,1928.47,1525.12Z" transform="translate(-50 -474.88)"/><path class="cls-2" d="M1050.42,873.33l-66.55,138.15H931.43l52.44-126.05H949.58V776.53h100.84Zm0-206.72H949.58V557.7h100.84Z" transform="translate(-50 -474.88)"/><path class="cls-1" d="M766.72,474.92c-62.23.24-102.18,40.09-102.53,102.65-.25,46.4.13,92.81-.13,139.22-.12,22.55-11,33.5-33.33,34.21-9.73.31-19.47,0-30.27,0v67.08c10.8,0,20.54-.25,30.27.06,22.28.71,33.21,11.65,33.33,34.21.26,46.41-.12,92.81.13,139.22.35,62.56,40.3,102.41,102.53,102.65,22.25.08,44.51,0,68.5,0v-66.5c-22.21,0-43.71,0-65.21,0-29.33-.06-39.2-9.8-39.25-38.95-.08-42.29-.59-84.6.18-126.88.5-28-4.56-53.72-24-77.35,19.48-23.62,24.54-49.38,24-77.35-.77-42.28-.26-84.58-.18-126.88,0-29.14,9.92-38.88,39.25-39,10.45,0,37.56,0,65.21,0V474.88C806.37,474.88,777.8,474.88,766.72,474.92Z" transform="translate(-50 -474.88)"/><path class="cls-1" d="M1233.28,474.92c62.23.24,102.18,40.09,102.53,102.65.25,46.4-.13,92.81.13,139.22.12,22.55,11,33.5,33.33,34.21,9.73.31,19.47,0,30.27,0v67.08c-10.8,0-20.54-.25-30.27.06-22.28.71-33.21,11.65-33.33,34.21-.26,46.41.12,92.81-.13,139.22-.35,62.56-40.3,102.41-102.53,102.65-22.25.08-44.51,0-68.5,0v-66.5c22.21,0,43.71,0,65.21,0,29.33-.06,39.2-9.8,39.25-38.95.08-42.29.59-84.6-.18-126.88-.5-28,4.56-53.72,24-77.35-19.48-23.62-24.54-49.38-24-77.35.77-42.28.26-84.58.18-126.88,0-29.14-9.92-38.88-39.25-39-10.45,0-37.56,0-65.21,0V474.88C1193.63,474.88,1222.2,474.88,1233.28,474.92Z" transform="translate(-50 -474.88)"/></svg>