<svg id="Layer_1" data-name="Layer 1" xmlns="http://www.w3.org/2000/svg" viewBox="0 0 1846 300.05"><defs><style>.cls-1{fill:#0a0167;}.cls-2{fill:#ff4500;}</style></defs><title>Horizontal logo</title><path class="cls-1" d="M517.69,1066.61V906.13h49.24q23.31,0,36.93,11.11t13.63,30.22a35.19,35.19,0,0,1-4.83,18.69,33.6,33.6,0,0,1-13.08,12.31,39.84,39.84,0,0,1-19,4.39V982a44.53,44.53,0,0,1,20.78,4.29,34.9,34.9,0,0,1,14.51,13.3q5.39,8.79,5.38,21.32,0,13.84-6.37,24.18A42.18,42.18,0,0,1,596.94,1061q-11.54,5.61-27.59,5.61Zm26.82-94.31h22q11,0,17.25-5.82T590,950.54q0-10.11-6.27-15.83T566.5,929h-22Zm0,71.44H567.6q12.07,0,19-6.48t6.92-17.7q0-11.2-6.92-18.13t-19-6.93H544.51Z" transform="translate(-77 -849.98)"/><path class="cls-1" d="M636.18,1066.61v-25.06h42.2v-71H641.67V945.7h63.09v95.85h37.37v25.06Zm53.19-141.13q-8.36,0-13.18-4.29t-4.84-11.54q0-7.24,4.84-11.54t13.18-4.28q8.36,0,13.19,4.28t4.84,11.54q0,7.26-4.84,11.54T689.37,925.48Z" transform="translate(-77 -849.98)"/><path class="cls-1" d="M755.1,1066.61V945.7h26.82v23.08h7.47l-7.47,6.38q0-14.94,8.68-23.3t23.85-8.36q17.81,0,28.47,11.88t10.66,31.87v79.36H826.1v-76.5q0-11-5.71-16.93t-16-5.93q-10.11,0-15.94,6.15T782.58,991v75.62Z" transform="translate(-77 -849.98)"/><path class="cls-1" d="M909.41,1068.8q-18.67,0-29.45-9.89t-10.78-26.6q0-17.8,11.88-27.47t33.63-9.68H944.8V984.83q0-8.79-5.71-13.74t-15.61-4.94q-9,0-15,4a15.46,15.46,0,0,0-7,10.77H874.68q2-17.14,15.39-27.25t34.29-10.12q22.2,0,35.06,11.11t12.86,30v82h-26.6V1045.5h-4.39l4.39-5.93q0,13.41-9.89,21.32T909.41,1068.8Zm9-20.66q11.66,0,19-5.93a18.86,18.86,0,0,0,7.36-15.39v-14.73H915.13q-8.36,0-13.41,4.84t-5.06,12.75q0,8.57,5.83,13.51T918.42,1048.14Z" transform="translate(-77 -849.98)"/><path class="cls-1" d="M996.24,1066.61V945.7h25.94v23.08H1029l-8.13,14.07q0-19.56,8.79-29.45t25.94-9.9q19.58,0,30.78,12.09T1097.58,989v8.79h-28.8V991q0-11.65-6-18t-16.6-6.37q-10.77,0-16.6,6.37t-5.82,18v75.62Z" transform="translate(-77 -849.98)"/><path class="cls-1" d="M1130.77,1106.17,1147.7,1060,1102.63,945.7h30.12l22.42,61.77q1.75,5.07,3.52,12.2t2.64,11.76q1.1-4.61,2.85-11.76t3.52-12.2l21.1-61.77h29l-58.25,160.47Z" transform="translate(-77 -849.98)"/><path class="cls-1" d="M1279.81,1068.8q-15.39,0-26.93-5.82a42.19,42.19,0,0,1-17.81-16.49q-6.25-10.65-6.26-25.17v-69.9q0-14.73,6.26-25.28a42.51,42.51,0,0,1,17.81-16.38q11.53-5.82,26.93-5.82,15.6,0,26.93,5.82a43.53,43.53,0,0,1,17.69,16.38q6.38,10.54,6.38,25.28h-27.7q0-11.43-6-17.37t-17.26-5.93q-11.2,0-17.37,5.93t-6.15,17.15v70.12q0,11.22,6.15,17.26t17.37,6q11.2,0,17.26-6t6-17.26h27.7q0,14.29-6.38,25.06a43,43,0,0,1-17.69,16.6Q1295.42,1068.8,1279.81,1068.8Z" transform="translate(-77 -849.98)"/><path class="cls-1" d="M1384.22,1068.8q-18.69,0-29.45-9.89t-10.77-26.6q0-17.8,11.87-27.47t33.63-9.68h30.12V984.83q0-8.79-5.72-13.74t-15.61-4.94q-9,0-15,4a15.46,15.46,0,0,0-7,10.77h-26.82q2-17.14,15.39-27.25t34.29-10.12q22.2,0,35.06,11.11t12.86,30v82h-26.6V1045.5h-4.39l4.39-5.93q0,13.41-9.89,21.32T1384.22,1068.8Zm9-20.66q11.64,0,19-5.93a18.86,18.86,0,0,0,7.37-15.39v-14.73h-29.68q-8.36,0-13.41,4.84t-5.06,12.75q0,8.57,5.83,13.51T1393.24,1048.14Z" transform="translate(-77 -849.98)"/><path class="cls-1" d="M1511.72,1068.58q-13.86,0-24.18-4.39a38.32,38.32,0,0,1-16.16-12.2,32.15,32.15,0,0,1-6.26-18.36h27.47a11.85,11.85,0,0,0,5.61,9.23q5.16,3.53,13.52,3.52h9.67q10.11,0,15.17-4a13,13,0,0,0,5-10.78,12.15,12.15,0,0,0-4.5-10q-4.52-3.63-14-4.72l-15-2.2q-20.65-2.85-30.33-11t-9.68-24.4q0-16.94,11.43-26.27t33.64-9.34h8.35q20.22,0,32.31,9a31,31,0,0,1,13,24.18h-27.47A11.1,11.1,0,0,0,1534,969q-4.72-3.07-12.42-3.07h-8.35q-9.45,0-13.74,3.4t-4.29,10q0,6.15,3.74,9.12t12.09,4.29l15.61,2.19q21.54,3.09,31.76,11.54t10.22,25q0,17.6-12,27.37t-35.28,9.78Z" transform="translate(-77 -849.98)"/><path class="cls-1" d="M1648.23,1066.61q-17.37,0-27.15-9.68t-9.78-26.59v-59.8h-32.76V945.7h32.76V911.63H1639V945.7h46.38v24.84H1639v59.8q0,11.43,11.2,11.43h33v24.84Z" transform="translate(-77 -849.98)"/><path class="cls-1" d="M1772.2,1066.61a42.91,42.91,0,0,1-20.77-4.84,35,35,0,0,1-14-13.74,40.86,40.86,0,0,1-5-20.55V931h-38.69V906.13h66.16v121.35c0,4.39,1.28,7.88,3.85,10.44s6,3.85,10.44,3.85h36.49v24.84Z" transform="translate(-77 -849.98)"/><path class="cls-1" d="M1872.66,1068.8q-15.39,0-26.82-5.93a43,43,0,0,1-17.69-16.6q-6.27-10.65-6.27-24.95V991q0-14.29,6.27-25a43,43,0,0,1,17.69-16.6q11.43-5.94,26.82-5.94,15.16,0,26.49,5.94a43.21,43.21,0,0,1,17.59,16.6q6.26,10.66,6.26,25v21.76h-74.52v8.57q0,12.75,6.16,19.24t18.24,6.48q9.24,0,14.95-3.19a14.25,14.25,0,0,0,7.25-9.34h27a38.39,38.39,0,0,1-16.6,25Q1892,1068.81,1872.66,1068.8Zm23.74-71.44v-6.59q0-12.54-5.93-19.24t-17.81-6.7q-11.87,0-18,6.81T1848.48,991v4.61l49.9-.44Z" transform="translate(-77 -849.98)"/><path class="cls-2" d="M295,1043l-32.24,66.91h-25.4l25.4-61.05H246.11V996.09H295Zm0-100.14H246.11V890.1H295Z" transform="translate(-77 -849.98)"/><path class="cls-1" d="M157.53,850c-30.14.11-49.49,19.42-49.66,49.72-.12,22.48.06,45-.06,67.43-.06,10.93-5.36,16.23-16.15,16.58-4.71.15-9.43,0-14.66,0v32.5c5.23,0,10-.13,14.66,0,10.79.35,16.09,5.65,16.15,16.58.12,22.47-.06,45,.06,67.43.17,30.3,19.52,49.61,49.66,49.72,10.78,0,21.57,0,33.19,0V1117.8c-10.76,0-21.18,0-31.59,0-14.21,0-19-4.76-19-18.87,0-20.49-.29-41,.08-61.46.25-13.55-2.21-26-11.64-37.47,9.43-11.44,11.89-23.92,11.64-37.47-.37-20.48-.12-41-.08-61.46,0-14.11,4.8-18.83,19-18.87h31.59V850C176.74,850,162.9,850,157.53,850Z" transform="translate(-77 -849.98)"/><path class="cls-1" d="M383.54,850c30.14.11,49.49,19.42,49.66,49.72.12,22.48-.06,45,.06,67.43.06,10.93,5.36,16.23,16.15,16.58,4.71.15,9.43,0,14.66,0v32.5c-5.23,0-9.95-.13-14.66,0-10.79.35-16.09,5.65-16.15,16.58-.12,22.47.06,45-.06,67.43-.17,30.3-19.52,49.61-49.66,49.72-10.78,0-21.56,0-33.19,0V1117.8c10.76,0,21.18,0,31.59,0,14.21,0,19-4.76,19-18.87,0-20.49.29-41-.08-61.46-.25-13.55,2.21-26,11.64-37.47-9.43-11.44-11.89-23.92-11.64-37.47.37-20.48.12-41,.08-61.46,0-14.11-4.8-18.83-19-18.87H350.35V850C364.33,850,378.17,850,383.54,850Z" transform="translate(-77 -849.98)"/></svg>